<svg width="33" height="13" viewBox="0 0 33 13" fill="none" xmlns="http://www.w3.org/2000/svg">
<path d="M2.63216 6.4229C2.61453 6.4229 2.59682 6.41722 2.58181 6.40557L2.33554 6.21406C2.31808 6.20043 2.30684 6.18032 2.30436 6.15826C2.30196 6.13622 2.30854 6.11416 2.32265 6.09701L4.93106 2.93529C4.94535 2.91797 4.96618 2.90731 4.98855 2.90571C5.01091 2.90411 5.03303 2.9118 5.04964 2.92687L5.28819 3.14413C5.32067 3.1736 5.32409 3.22348 5.29613 3.25724L2.6955 6.39313C2.67933 6.41258 2.65592 6.42277 2.63226 6.42277L2.63216 6.4229ZM2.50311 6.13639L2.61984 6.22714L5.11981 3.21282L5.00294 3.10636L2.50317 6.13647L2.50311 6.13639Z" fill="#305D8A"/>
<path d="M4.31522 10.3282H3.98687C3.9561 10.3282 3.92795 10.311 3.91383 10.2836L2.36954 7.28052C2.34927 7.241 2.36409 7.19241 2.40306 7.17101L2.6648 7.02735C2.68436 7.01677 2.70705 7.01437 2.72846 7.02087C2.74961 7.02735 2.76724 7.04219 2.77743 7.06191L4.38832 10.2087C4.40132 10.2341 4.40019 10.2645 4.38526 10.2889C4.37038 10.3133 4.34383 10.3282 4.31522 10.3282V10.3282ZM4.03697 10.164H4.18094L2.66976 7.21197L2.55209 7.27648L4.03697 10.1641V10.164Z" fill="#305D8A"/>
<path d="M4.7041 1.40696C4.56156 1.40696 4.42753 1.35149 4.32676 1.25071C4.1188 1.0427 4.1188 0.704241 4.32676 0.496125C4.42753 0.395347 4.56156 0.339874 4.7041 0.339874C4.84663 0.339874 4.98066 0.395347 5.08142 0.496125C5.28937 0.704221 5.28937 1.04267 5.08142 1.25071C4.98064 1.35149 4.84661 1.40696 4.7041 1.40696ZM4.7041 0.504079C4.60541 0.504079 4.51267 0.542475 4.44283 0.612216C4.29894 0.756269 4.29894 0.990666 4.44283 1.13464C4.51265 1.20438 4.60541 1.24278 4.7041 1.24278C4.80276 1.24278 4.89553 1.20436 4.96535 1.13464C5.10926 0.990666 5.10926 0.756269 4.96535 0.612216C4.89553 0.542475 4.80276 0.504079 4.7041 0.504079V0.504079Z" fill="#305D8A"/>
<path d="M4.44293 1.8553C4.42193 1.8553 4.40092 1.84729 4.38489 1.83125L3.97862 1.42499C3.94656 1.39292 3.94656 1.34098 3.97862 1.30891L5.13956 0.147978C5.15495 0.132603 5.1758 0.123932 5.19759 0.123932C5.2194 0.123932 5.24023 0.132603 5.25563 0.147978L5.6619 0.55433C5.69396 0.586392 5.69396 0.638338 5.6619 0.6704L4.50096 1.83125C4.48493 1.84729 4.46394 1.8553 4.44293 1.8553ZM4.15273 1.36695L4.44293 1.65715L5.48779 0.612365L5.19759 0.322084L4.15273 1.36695Z" fill="#305D8A"/>
<path d="M6.1842 4.49998H6.18021C6.15712 4.49998 6.13556 4.50063 6.12082 4.48268L3.97324 1.87693C3.94636 1.84431 3.9487 1.79989 3.97861 1.77L5.60385 0.146284C5.63382 0.116456 5.6816 0.114939 5.71399 0.141712L8.32611 2.2897C8.34398 2.30443 8.35489 2.32616 8.35602 2.34925C8.35712 2.37249 8.34839 2.3951 8.33205 2.41146L6.24248 4.48852C6.22709 4.50399 6.20616 4.49998 6.18443 4.49998H6.1842ZM4.14726 1.83663L6.19015 4.32122L8.15183 2.35954L5.66723 0.316658L4.14734 1.83654L4.14726 1.83663Z" fill="#305D8A"/>
<g opacity="0.2">
<path opacity="0.2" d="M6.87341 3.8604L6.99703 3.86286L7.63541 3.22429L7.69342 3.16627L7.6885 3.05516L6.88079 3.86286" fill="#9DB6C9"/>
</g>
<path d="M2.43598 7.32489C2.06899 7.32489 1.77039 7.02635 1.77039 6.65936C1.77039 6.29231 2.06899 5.99368 2.43598 5.99368C2.80297 5.99368 3.10157 6.29228 3.10157 6.65936C3.10157 7.02635 2.80297 7.32489 2.43598 7.32489ZM2.43598 6.15787C2.1595 6.15787 1.93457 6.38279 1.93457 6.65936C1.93457 6.93578 2.15952 7.16071 2.43598 7.16071C2.71244 7.16071 2.93741 6.93578 2.93741 6.65936C2.93741 6.38277 2.71246 6.15787 2.43598 6.15787Z" fill="#305D8A"/>
<path d="M2.43598 7.00919C2.24279 7.00919 2.08568 6.85208 2.08568 6.65895C2.08568 6.46576 2.24281 6.30856 2.43598 6.30856C2.62917 6.30856 2.78631 6.46576 2.78631 6.65895C2.78631 6.85208 2.62917 7.00919 2.43598 7.00919ZM2.43598 6.47275C2.33338 6.47275 2.24984 6.55626 2.24984 6.65895C2.24984 6.76157 2.33338 6.84503 2.43598 6.84503C2.53858 6.84503 2.62212 6.76157 2.62212 6.65895C2.62212 6.55626 2.53858 6.47275 2.43598 6.47275Z" fill="#305D8A"/>
<path d="M5.92589 12.0522H2.75618C2.71698 12.0522 2.68324 12.0244 2.67561 11.986C2.65405 11.8765 2.64314 11.7657 2.64314 11.6568C2.64314 10.7206 3.40486 9.95897 4.3411 9.95897C5.27733 9.95897 6.03897 10.7206 6.03897 11.6568C6.03897 11.7653 6.02806 11.876 6.00652 11.9859C5.99897 12.0244 5.96523 12.0522 5.92593 12.0522H5.92589ZM2.82506 11.888H5.8568C5.86867 11.8105 5.87468 11.733 5.87468 11.6568C5.87468 10.8112 5.18664 10.1232 4.34097 10.1232C3.49525 10.1232 2.8072 10.8112 2.8072 11.6568C2.8072 11.7332 2.81321 11.8107 2.825 11.888H2.82506Z" fill="#305D8A"/>
<g opacity="0.2">
<path opacity="0.2" d="M4.34103 10.0412C4.06854 10.0412 3.81227 10.1093 3.58702 10.2283C3.67232 10.2145 3.7593 10.2053 3.84852 10.2053C4.7409 10.2053 5.46428 10.9287 5.46428 11.8211C5.46428 11.8715 5.46141 11.9211 5.45676 11.9702H5.92588C5.94577 11.8688 5.95682 11.7642 5.95682 11.6569C5.95682 10.7646 5.23341 10.0412 4.34103 10.0412Z" fill="#9DB6C9"/>
</g>
<path d="M27.9739 3.74888C27.8884 3.74888 27.8069 3.72965 27.7317 3.69157C27.5892 3.6194 27.4878 3.48898 27.4459 3.3241C27.4051 3.16336 27.4263 2.98862 27.5054 2.83206C27.6235 2.59887 27.8529 2.44807 28.09 2.44807C28.1754 2.44807 28.2569 2.46739 28.332 2.50539C28.6222 2.65225 28.7238 3.03784 28.5583 3.3649C28.4403 3.59819 28.2109 3.74888 27.9739 3.74888V3.74888ZM28.0899 2.61224C27.9142 2.61224 27.7423 2.72767 27.652 2.90619C27.5907 3.02732 27.574 3.16143 27.605 3.2837C27.635 3.40186 27.7063 3.49468 27.8058 3.54503C27.8579 3.57141 27.9144 3.58472 27.9739 3.58472C28.1496 3.58472 28.3214 3.46937 28.4118 3.29085C28.5364 3.0445 28.4673 2.75791 28.2578 2.65195C28.2059 2.62563 28.1493 2.61224 28.0899 2.61224Z" fill="#305D8A"/>
<path d="M27.1805 5.4389C26.6987 5.4389 26.2261 5.13185 25.9769 4.65672C25.8069 4.33296 25.7567 3.97052 25.8355 3.63609C25.9153 3.29747 26.1174 3.02789 26.4045 2.87718C26.56 2.79557 26.7295 2.7542 26.9082 2.7542C27.3901 2.7542 27.8626 3.06122 28.112 3.53635C28.2819 3.86013 28.3321 4.22265 28.2533 4.55701C28.1735 4.89569 27.9715 5.16522 27.6843 5.31594C27.5288 5.39753 27.3593 5.4389 27.1805 5.4389ZM26.9083 2.91842C26.7564 2.91842 26.6126 2.95352 26.4808 3.02262C26.2364 3.15089 26.064 3.38217 25.9953 3.67381C25.9256 3.9697 25.9707 4.29172 26.1223 4.58046C26.3435 5.00221 26.7589 5.27475 27.1805 5.27475C27.3324 5.27475 27.4763 5.23966 27.608 5.17055C27.8523 5.04237 28.0248 4.81109 28.0935 4.51945C28.1632 4.22349 28.1182 3.90146 27.9666 3.61274C27.7453 3.19099 27.3298 2.91842 26.9083 2.91842V2.91842Z" fill="#305D8A"/>
<path d="M26.2683 7.44176C26.1572 7.44176 26.0442 7.42265 25.9326 7.38514C25.518 7.24574 25.2709 6.90591 25.3699 6.61141C25.439 6.40579 25.6613 6.27808 25.9499 6.27808C26.061 6.27808 26.1739 6.29716 26.2856 6.33468C26.7001 6.4741 26.9473 6.8139 26.8483 7.10843C26.7791 7.31402 26.5569 7.44176 26.2683 7.44176V7.44176ZM25.9499 6.44226C25.7372 6.44226 25.5707 6.52914 25.5255 6.66368C25.4581 6.86407 25.6685 7.12317 25.9848 7.22948C26.0796 7.2614 26.1749 7.27757 26.2682 7.27757C26.4809 7.27757 26.6474 7.19069 26.6926 7.05617C26.76 6.85577 26.5496 6.59667 26.2333 6.49035C26.1385 6.45845 26.0432 6.44226 25.9499 6.44226V6.44226Z" fill="#305D8A"/>
<path d="M29.5995 5.97805C29.3814 5.97805 29.2074 5.8962 29.1094 5.74767C28.9176 5.45676 29.0966 4.99918 29.5084 4.72759C29.6997 4.6015 29.9145 4.53198 30.1132 4.53198C30.3313 4.53198 30.5053 4.61384 30.6033 4.76236C30.7951 5.05321 30.616 5.51078 30.2042 5.78244C30.013 5.90856 29.7982 5.97805 29.5995 5.97805V5.97805ZM30.1132 4.69617C29.9463 4.69617 29.7636 4.75597 29.5988 4.86468C29.2682 5.08265 29.1069 5.44563 29.2464 5.65725C29.3131 5.75827 29.4384 5.81389 29.5995 5.81389C29.7665 5.81389 29.9491 5.75401 30.1137 5.64538C30.4444 5.42732 30.6057 5.06435 30.4662 4.85281C30.3996 4.75178 30.2742 4.69617 30.1132 4.69617V4.69617Z" fill="#305D8A"/>
<path d="M28.0395 8.93209C26.9984 8.93209 26.1514 7.91023 26.1514 6.65413C26.1514 5.39804 26.9983 4.37617 28.0395 4.37617C29.0806 4.37617 29.9275 5.39802 29.9275 6.65413C29.9275 7.91025 29.0805 8.93209 28.0395 8.93209V8.93209ZM28.0395 4.54038C27.089 4.54038 26.3156 5.48865 26.3156 6.65413C26.3156 7.81964 27.089 8.76789 28.0395 8.76789C28.99 8.76789 29.7633 7.81964 29.7633 6.65413C29.7633 5.48865 28.99 4.54038 28.0395 4.54038V4.54038Z" fill="#305D8A"/>
<path d="M29.7081 12.0522H26.4525C26.1526 12.0522 25.9081 11.8098 25.905 11.5105L25.4953 8.50626C25.4948 8.50265 25.4946 8.4989 25.4946 8.49519C25.4946 8.19328 25.7402 7.94775 26.0421 7.94775H30.1185C30.4204 7.94775 30.666 8.1933 30.666 8.49519C30.666 8.4989 30.6658 8.50265 30.6653 8.50626L30.2556 11.5105C30.2525 11.8098 30.0081 12.0522 29.7081 12.0522H29.7081ZM25.6588 8.48992L26.0685 11.4936C26.069 11.4972 26.0692 11.5009 26.0692 11.5046C26.0692 11.716 26.2412 11.8879 26.4525 11.8879H29.7081C29.9196 11.8879 30.0915 11.7159 30.0915 11.5046C30.0915 11.5009 30.0917 11.4972 30.0922 11.4936L30.5019 8.48992C30.499 8.281 30.3282 8.11194 30.1186 8.11194H26.0422C25.8325 8.11192 25.6617 8.281 25.6588 8.48992H25.6588Z" fill="#305D8A"/>
<path d="M24.208 11.3962H9.13168C8.82978 11.3962 8.58417 11.1506 8.58417 10.8487V0.697554C8.58417 0.39565 8.82978 0.150101 9.13168 0.150101H24.208C24.5099 0.150101 24.7555 0.39565 24.7555 0.697554V10.8487C24.7556 11.1506 24.5099 11.3962 24.208 11.3962L24.208 11.3962ZM9.13168 0.314306C8.92029 0.314306 8.74833 0.48626 8.74833 0.697574V10.8488C8.74833 11.0601 8.92029 11.232 9.13168 11.232H24.208C24.4194 11.232 24.5913 11.0601 24.5913 10.8488V0.697574C24.5913 0.48626 24.4194 0.314306 24.208 0.314306H9.13168Z" fill="#305D8A"/>
<g opacity="0.2">
<path opacity="0.2" d="M24.126 0.231497H23.9758C24.1798 0.231497 24.3452 0.39687 24.3452 0.600886V10.6565H24.5914V0.696826C24.5914 0.439797 24.383 0.231476 24.126 0.231476V0.231497Z" fill="#9DB6C9"/>
</g>
<path d="M23.222 11.2322H10.1159C9.81399 11.2322 9.56837 10.9867 9.56837 10.6848V1.60081C9.56837 1.2989 9.81399 1.05338 10.1159 1.05338H23.222C23.5239 1.05338 23.7695 1.29892 23.7695 1.60081V10.6848C23.7695 10.9867 23.5238 11.2322 23.222 11.2322V11.2322ZM10.1159 1.21754C9.90449 1.21754 9.73256 1.38949 9.73256 1.60079V10.6847C9.73256 10.8961 9.90451 11.068 10.1159 11.068H23.222C23.4334 11.068 23.6053 10.896 23.6053 10.6847V1.60079C23.6053 1.38947 23.4333 1.21754 23.222 1.21754H10.1159Z" fill="#305D8A"/>
<path d="M27.4388 10.7382H5.98144C5.72443 10.7382 5.60652 10.9573 5.68019 11.2035C5.70471 11.2856 5.75491 11.4762 5.77607 11.5591C5.83964 11.8081 6.0528 11.9695 6.30981 11.9695H27.1112C27.3682 11.9695 27.5813 11.8081 27.6449 11.5591C27.6661 11.4762 27.7162 11.2856 27.7408 11.2035C27.8144 10.9573 27.6965 10.7382 27.4395 10.7382H27.4388Z" fill="#305D8A"/>
<path d="M27.1108 12.0522H6.30946C6.01478 12.0522 5.76828 11.8624 5.69621 11.58C5.67585 11.5003 5.6255 11.3089 5.60121 11.2276C5.55414 11.0706 5.57388 10.9177 5.65531 10.8085C5.72819 10.7106 5.84387 10.6567 5.98109 10.6567H27.4384C27.5757 10.6567 27.6914 10.7106 27.7642 10.8085C27.8457 10.9177 27.8654 11.0706 27.8184 11.2277C27.7941 11.3089 27.7437 11.5004 27.7234 11.58C27.6513 11.8625 27.4048 12.0522 27.1101 12.0522H27.1108ZM5.98146 10.8209C5.89616 10.8209 5.82907 10.8504 5.78731 10.9065C5.73721 10.9737 5.72687 11.0737 5.75885 11.1806C5.78411 11.2652 5.83438 11.4561 5.85561 11.5395C5.90973 11.7512 6.08802 11.888 6.30983 11.888H27.1112C27.333 11.888 27.5113 11.7512 27.5654 11.5395C27.5866 11.4561 27.6369 11.2652 27.6622 11.1806C27.6942 11.0737 27.6838 10.9737 27.6337 10.9065C27.5919 10.8505 27.5248 10.8209 27.4395 10.8209H5.98218H5.98146Z" fill="#305D8A"/>
<g opacity="0.2">
<path opacity="0.2" d="M18.0765 10.7382H14.4127V11.0116C14.4127 11.2686 14.6211 11.477 14.8781 11.477H18.4621C18.7191 11.477 18.9275 11.2686 18.9275 11.0116V10.7382H18.0765V10.7382Z" fill="#9DB6C9"/>
</g>
<path d="M18.0765 10.7382H14.4984C14.5256 10.9692 14.7219 11.1486 14.9603 11.1486H18.3801C18.6185 11.1486 18.8147 10.9692 18.842 10.7382H18.0765H18.0765Z" fill="#9DB6C9"/>
<path d="M18.3798 11.2322H14.96C14.6828 11.2322 14.4491 11.0246 14.4166 10.7493C14.4139 10.726 14.4212 10.7026 14.4368 10.6851C14.4524 10.6676 14.4747 10.6576 14.4981 10.6576H18.8417C18.8651 10.6576 18.8874 10.6676 18.903 10.6851C18.9186 10.7026 18.9259 10.726 18.9232 10.7493C18.8907 11.0246 18.657 11.2322 18.3798 11.2322H18.3798ZM14.6021 10.8217C14.6575 10.967 14.7981 11.068 14.96 11.068H18.3798C18.5416 11.068 18.6822 10.967 18.7376 10.8217H14.6022H14.6021Z" fill="#305D8A"/>
<g opacity="0.2">
<path opacity="0.2" d="M5.84758 11.6422C5.94602 11.7955 6.11525 11.8885 6.31004 11.8885H27.1114C27.3062 11.8885 27.4754 11.7955 27.5739 11.6422H5.84797H5.84758Z" fill="#9DB6C9"/>
</g>
<g opacity="0.33">
<path opacity="0.33" d="M23.2219 1.13431H10.1159C9.85888 1.13431 9.65045 1.34265 9.65045 1.59966V1.84593C9.65045 1.58892 9.85888 1.38057 10.1159 1.38057H23.2219C23.4789 1.38057 23.6874 1.58894 23.6874 1.84593V1.59966C23.6874 1.34265 23.4789 1.13431 23.2219 1.13431Z" fill="#9DB6C9"/>
</g>
<g opacity="0.2">
<path opacity="0.2" d="M24.3445 10.4922H8.66571V10.6563H24.3445V10.4922Z" fill="#9DB6C9"/>
</g>
<path d="M16.7112 0.744503C16.7622 0.744503 16.8035 0.703156 16.8035 0.652151C16.8035 0.601147 16.7622 0.559799 16.7112 0.559799C16.6602 0.559799 16.6188 0.601147 16.6188 0.652151C16.6188 0.703156 16.6602 0.744503 16.7112 0.744503Z" fill="#305D8A"/>
<g opacity="0.2">
<path opacity="0.2" d="M24.0153 0.235592C24.0289 0.233993 24.0422 0.23143 24.0563 0.23143H24.0153V0.235592Z" fill="#9DB6C9"/>
</g>
<path d="M32.3076 12.0522H31.8971C31.8518 12.0522 31.815 12.0155 31.815 11.9701C31.815 11.9247 31.8518 11.888 31.8971 11.888H32.3076C32.3529 11.888 32.3897 11.9247 32.3897 11.9701C32.3897 12.0155 32.3529 12.0522 32.3076 12.0522ZM31.2404 12.0522H30.5837C30.5383 12.0522 30.5016 12.0155 30.5016 11.9701C30.5016 11.9247 30.5383 11.888 30.5837 11.888H31.2404C31.2858 11.888 31.3225 11.9247 31.3225 11.9701C31.3225 12.0155 31.2858 12.0522 31.2404 12.0522Z" fill="#305D8A"/>
<path d="M30.5835 12.0522H3.7408C3.69544 12.0522 3.65872 12.0155 3.65872 11.9701C3.65872 11.9247 3.69544 11.888 3.7408 11.888H30.5835C30.6289 11.888 30.6656 11.9247 30.6656 11.9701C30.6656 12.0155 30.6289 12.0522 30.5835 12.0522Z" fill="#305D8A"/>
<path d="M3.65921 12.0522C3.61393 12.0522 3.57672 12.0155 3.57672 11.9701C3.57672 11.9247 3.61303 11.888 3.65841 11.888H3.65921C3.70458 11.888 3.7413 11.9247 3.7413 11.9701C3.7413 12.0155 3.70458 12.0522 3.65921 12.0522ZM3.00172 12.0522H2.345C2.29963 12.0522 2.26292 12.0155 2.26292 11.9701C2.26292 11.9247 2.29963 11.888 2.345 11.888H3.00172C3.04708 11.888 3.0838 11.9247 3.0838 11.9701C3.0838 12.0155 3.04708 12.0522 3.00172 12.0522ZM1.68832 12.0522H1.03161C0.986239 12.0522 0.949524 12.0155 0.949524 11.9701C0.949524 11.9247 0.986239 11.888 1.03161 11.888H1.68832C1.73369 11.888 1.77041 11.9247 1.77041 11.9701C1.77041 12.0155 1.73367 12.0522 1.68832 12.0522Z" fill="#305D8A"/>
<path d="M28.7364 3.47398C28.7248 3.47398 28.7128 3.4715 28.7015 3.46613L28.2537 3.25498C28.2128 3.23567 28.1952 3.18675 28.2145 3.14571C28.2337 3.10483 28.2827 3.08696 28.3238 3.10651L28.7716 3.31767C28.8125 3.33698 28.8301 3.38589 28.8108 3.42693C28.7968 3.45658 28.7672 3.47398 28.7364 3.47398V3.47398Z" fill="#305D8A"/>
<path d="M28.0333 2.61646C27.991 2.61646 27.9551 2.58407 27.9516 2.5412L27.9273 2.24949C27.9234 2.20435 27.957 2.16469 28.0022 2.16091C28.0483 2.15554 28.087 2.19066 28.0908 2.23586L28.1151 2.52757C28.119 2.57269 28.0854 2.61238 28.0402 2.61615C28.0379 2.61638 28.0356 2.61646 28.0333 2.61646V2.61646Z" fill="#305D8A"/>
<path d="M27.7627 2.9178C27.7488 2.9178 27.7347 2.91428 27.7217 2.90682L27.3415 2.68749C27.3023 2.66479 27.2888 2.61461 27.3115 2.57533C27.3341 2.53611 27.3841 2.52266 27.4236 2.54528L27.8038 2.76461C27.8431 2.7873 27.8566 2.83746 27.8339 2.87676C27.8187 2.90306 27.7911 2.9178 27.7627 2.9178V2.9178Z" fill="#305D8A"/>
<path d="M28.556 2.91782C28.5162 2.91782 28.4813 2.88879 28.475 2.84816C28.4681 2.80335 28.4989 2.7615 28.5437 2.75462L28.7233 2.72704C28.7681 2.72007 28.8099 2.75093 28.8168 2.79576C28.8237 2.84057 28.7929 2.88242 28.7481 2.8893L28.5685 2.91688C28.5644 2.91749 28.5601 2.91782 28.556 2.91782V2.91782Z" fill="#305D8A"/>
<path d="M28.7364 6.10105C28.7172 6.10105 28.6979 6.09433 28.6823 6.0807C28.6483 6.05079 28.6448 5.99892 28.6747 5.96487L28.9524 5.64804C28.9823 5.61388 29.0343 5.61069 29.0682 5.64043C29.1023 5.67032 29.1058 5.72221 29.0758 5.75628L28.7982 6.07307C28.782 6.09158 28.7592 6.10105 28.7364 6.10105V6.10105Z" fill="#305D8A"/>
<path d="M30.5835 5.78331C30.5661 5.78331 30.5486 5.77775 30.5337 5.7664L30.0822 5.42082C30.0462 5.39323 30.0393 5.34177 30.0669 5.30578C30.0944 5.26978 30.1462 5.26297 30.182 5.29046L30.6334 5.63605C30.6694 5.66365 30.6763 5.71508 30.6487 5.75108C30.6326 5.77224 30.6082 5.78331 30.5835 5.78331V5.78331Z" fill="#305D8A"/>
<path d="M30.0505 6.01904C30.0164 6.01904 29.9846 5.99766 29.9729 5.96368L29.926 5.82723C29.9112 5.78434 29.934 5.73762 29.9769 5.72292C30.0199 5.7081 30.0665 5.73104 30.0812 5.77382L30.1281 5.91027C30.1428 5.95316 30.1201 5.99988 30.0772 6.01456C30.0684 6.01763 30.0593 6.01904 30.0505 6.01904Z" fill="#305D8A"/>
<path d="M29.6036 5.02276C29.5677 5.02276 29.5347 4.99896 29.5245 4.96264L29.4099 4.54986C29.3978 4.50617 29.4234 4.46095 29.4671 4.44877C29.5108 4.43676 29.556 4.46224 29.5681 4.50593L29.6828 4.9187C29.6949 4.96239 29.6693 5.00761 29.6256 5.01979C29.6182 5.0218 29.6109 5.02276 29.6036 5.02276V5.02276Z" fill="#305D8A"/>
<path d="M30.0915 4.66401C30.0792 4.66401 30.0667 4.6612 30.0549 4.65536C30.0143 4.63508 29.9979 4.58576 30.0182 4.54519L30.1003 4.38102C30.1205 4.34045 30.1699 4.32409 30.2104 4.34431C30.251 4.36458 30.2674 4.41391 30.2471 4.45446L30.165 4.61862C30.1506 4.6474 30.1217 4.66401 30.0915 4.66401V4.66401Z" fill="#305D8A"/>
<path d="M30.4195 5.02276C30.3826 5.02276 30.3491 4.99773 30.3399 4.96037C30.329 4.91638 30.3558 4.8719 30.3999 4.86099L30.8513 4.74924C30.8953 4.73856 30.9398 4.76517 30.9507 4.80919C30.9616 4.8532 30.9348 4.89769 30.8908 4.90861L30.4393 5.02036C30.4326 5.02196 30.4261 5.02276 30.4195 5.02276Z" fill="#305D8A"/>
<path d="M30.7331 5.25441C30.7308 5.25441 30.7284 5.25433 30.726 5.25408L30.5755 5.24118C30.5304 5.23733 30.4969 5.19756 30.5008 5.15236C30.5047 5.10732 30.5439 5.07201 30.5896 5.07763L30.7401 5.09053C30.7852 5.09438 30.8187 5.13415 30.8148 5.17936C30.8111 5.22212 30.7753 5.25441 30.7331 5.25441V5.25441Z" fill="#305D8A"/>
<path d="M26.7254 3.10457C26.72 3.10457 26.7147 3.1041 26.7092 3.10297C26.6648 3.09408 26.6359 3.05086 26.6448 3.00638L26.7269 2.59595C26.7358 2.55146 26.7788 2.52227 26.8235 2.53158C26.8679 2.54047 26.8968 2.58369 26.8879 2.62817L26.8058 3.03862C26.798 3.07766 26.7637 3.10457 26.7254 3.10457V3.10457Z" fill="#305D8A"/>
<path d="M26.3769 3.0691C26.3596 3.0691 26.3422 3.06365 26.3274 3.05235L26.1283 2.90116C26.0921 2.87375 26.0851 2.82228 26.1126 2.7862C26.1399 2.74997 26.1916 2.74306 26.2275 2.77049L26.4266 2.92168C26.4627 2.94909 26.4698 3.00057 26.4423 3.03663C26.4262 3.05795 26.4017 3.0691 26.3769 3.0691Z" fill="#305D8A"/>
<path d="M25.8808 4.91001C25.844 4.91001 25.8105 4.88508 25.8012 4.84773C25.7903 4.80372 25.8171 4.75915 25.8611 4.74825L26.3573 4.62511C26.4013 4.61451 26.4458 4.64097 26.4569 4.68499C26.4677 4.72898 26.4409 4.77356 26.397 4.78447L25.9007 4.90761C25.894 4.90921 25.8874 4.91001 25.8808 4.91001Z" fill="#305D8A"/>
<path d="M26.7254 4.17815C26.7168 4.17815 26.7081 4.1768 26.6995 4.17397L26.3513 4.05807C26.3082 4.04372 26.285 3.99722 26.2992 3.95425C26.3135 3.9112 26.3601 3.8882 26.4031 3.90222L26.7513 4.01815C26.7943 4.0325 26.8176 4.079 26.8033 4.12196C26.7918 4.15642 26.7598 4.17815 26.7254 4.17815V4.17815Z" fill="#305D8A"/>
<path d="M27.0432 3.6107C27.0382 3.6107 27.0332 3.61029 27.0281 3.60933C26.9835 3.60107 26.9541 3.55818 26.9624 3.51361L27.027 3.16571C27.0352 3.12114 27.0781 3.0914 27.1227 3.09997C27.1673 3.10823 27.1967 3.15111 27.1884 3.19568L27.1238 3.54359C27.1165 3.58311 27.082 3.6107 27.0432 3.6107Z" fill="#305D8A"/>
<path d="M27.6971 3.66545C27.6819 3.66545 27.6664 3.66119 27.6527 3.65231C27.6145 3.62779 27.6036 3.57695 27.6282 3.53886L27.8882 3.1362C27.9128 3.09805 27.9637 3.08712 28.0017 3.11175C28.0398 3.13626 28.0507 3.1871 28.0261 3.22517L27.7661 3.62785C27.7504 3.65223 27.7241 3.66545 27.6971 3.66545Z" fill="#305D8A"/>
<path d="M28.3675 4.12014C28.3641 4.12014 28.3606 4.11998 28.3572 4.11948L27.892 4.06153C27.847 4.05591 27.8151 4.01495 27.8207 3.96989C27.8263 3.92492 27.8667 3.89326 27.9124 3.89862L28.3776 3.95657C28.4225 3.96219 28.4544 4.00315 28.4488 4.04821C28.4437 4.08976 28.4082 4.12014 28.3675 4.12014Z" fill="#305D8A"/>
<path d="M25.9341 4.41164C25.9271 4.41164 25.92 4.41077 25.913 4.40893L25.4729 4.29212C25.4292 4.2805 25.403 4.23552 25.4146 4.19169C25.4262 4.14792 25.4714 4.12187 25.5151 4.13341L25.9551 4.25022C25.9989 4.26184 26.025 4.30682 26.0134 4.35065C26.0036 4.38734 25.9704 4.41164 25.9341 4.41164V4.41164Z" fill="#305D8A"/>
<path d="M25.7127 3.85692C25.6729 3.85692 25.638 3.82797 25.6317 3.78742C25.6247 3.74259 25.6554 3.70069 25.7002 3.6937L25.867 3.6678C25.9122 3.66106 25.9538 3.69154 25.9607 3.73636C25.9677 3.78117 25.937 3.82309 25.8922 3.83006L25.7254 3.85597C25.7211 3.85659 25.7169 3.85692 25.7127 3.85692V3.85692Z" fill="#305D8A"/>
<path d="M27.2994 4.35323C27.2903 4.35323 27.2811 4.35171 27.2721 4.34857C27.2293 4.3335 27.2069 4.28662 27.222 4.24388L27.3041 4.01083C27.3191 3.96803 27.3662 3.94582 27.4088 3.96065C27.4515 3.97571 27.474 4.02262 27.4589 4.06534L27.3768 4.29839C27.365 4.33215 27.3332 4.35323 27.2994 4.35323V4.35323Z" fill="#305D8A"/>
<path d="M26.2334 3.47398C26.2127 3.47398 26.192 3.46621 26.1761 3.45065L25.9594 3.2395C25.9269 3.20791 25.9263 3.15588 25.958 3.12342C25.9896 3.09095 26.0416 3.09048 26.074 3.12199L26.2907 3.33314C26.3232 3.36473 26.3238 3.41674 26.2922 3.44922C26.2761 3.46572 26.2547 3.47398 26.2334 3.47398V3.47398Z" fill="#305D8A"/>
<path d="M26.9038 4.664C26.8936 4.664 26.8832 4.66216 26.8732 4.65816L26.7364 4.60341C26.6943 4.58649 26.6739 4.53871 26.6907 4.49662C26.7077 4.45454 26.7555 4.43418 26.7975 4.45093L26.9343 4.50568C26.9764 4.5226 26.9968 4.57036 26.98 4.61245C26.9671 4.64453 26.9363 4.664 26.9038 4.664Z" fill="#305D8A"/>
<path d="M26.0161 6.61968C25.9913 6.61968 25.9669 6.60855 25.9507 6.58731L25.6486 6.19057C25.6211 6.15449 25.6281 6.10303 25.6642 6.07554C25.7003 6.04805 25.7518 6.05502 25.7792 6.0912L26.0814 6.48791C26.1088 6.52399 26.1018 6.57546 26.0657 6.60293C26.0509 6.61427 26.0334 6.61968 26.0161 6.61968Z" fill="#305D8A"/>
<path d="M25.5753 6.55001C25.556 6.55001 25.5365 6.5432 25.5208 6.52932L25.3761 6.40087C25.3422 6.37081 25.3391 6.31897 25.3692 6.28498C25.3992 6.25107 25.4513 6.248 25.4851 6.27807L25.6298 6.40651C25.6638 6.43656 25.6668 6.48843 25.6368 6.52242C25.6206 6.5407 25.5979 6.55001 25.5753 6.55001Z" fill="#305D8A"/>
<path d="M25.3437 7.08505C25.3108 7.08505 25.2798 7.06514 25.2671 7.03259C25.2508 6.99034 25.2718 6.9428 25.3141 6.92638L25.6845 6.78272C25.7266 6.76644 25.7742 6.78731 25.7908 6.82962C25.8071 6.87187 25.7861 6.91941 25.7439 6.93583L25.3734 7.07949C25.3637 7.08327 25.3535 7.08505 25.3437 7.08505Z" fill="#305D8A"/>
<path d="M25.5754 7.44174C25.5575 7.44174 25.5395 7.43595 25.5245 7.42392C25.489 7.3958 25.483 7.34416 25.5112 7.30865L25.6491 7.13486C25.6772 7.09935 25.7288 7.09326 25.7644 7.12155C25.7999 7.1497 25.8058 7.20132 25.7776 7.23682L25.6398 7.41064C25.6235 7.43106 25.5996 7.44174 25.5754 7.44174V7.44174Z" fill="#305D8A"/>
<path d="M25.9341 7.52377C25.9286 7.52377 25.9231 7.52321 25.9175 7.52208C25.873 7.51286 25.8445 7.46942 25.8536 7.4251L25.9357 7.02832C25.9449 6.9839 25.9882 6.95552 26.0327 6.96452C26.0771 6.97375 26.1057 7.01719 26.0965 7.06152L26.0144 7.45827C26.0064 7.49707 25.9722 7.52377 25.9341 7.52377V7.52377Z" fill="#305D8A"/>
<path d="M28.7918 5.02277C28.783 5.02277 28.7741 5.02142 28.7653 5.01836C28.7224 5.00368 28.6994 4.95711 28.7141 4.91416L28.8783 4.43299C28.8929 4.3901 28.9396 4.36702 28.9825 4.38184C29.0254 4.3965 29.0483 4.44308 29.0337 4.48605L28.8695 4.96719C28.8578 5.00129 28.8259 5.02277 28.7918 5.02277Z" fill="#305D8A"/>
<path d="M28.4863 4.60864C28.4829 4.60864 28.4795 4.6084 28.4759 4.60801C28.431 4.60233 28.3991 4.56121 28.4048 4.51621L28.4299 4.31837C28.4357 4.27339 28.4763 4.24238 28.5217 4.24725C28.5667 4.25295 28.5985 4.29408 28.5928 4.33905L28.5677 4.5369C28.5624 4.57835 28.5271 4.60864 28.4863 4.60864Z" fill="#305D8A"/>
<path d="M27.0431 5.2544C27.0269 5.2544 27.0107 5.24968 26.9963 5.23974L26.5821 4.95169C26.5449 4.9258 26.5357 4.87467 26.5616 4.8374C26.5874 4.80012 26.6385 4.79089 26.6759 4.81686L27.0901 5.10489C27.1273 5.1308 27.1365 5.18195 27.1106 5.21922C27.0947 5.24214 27.0691 5.2544 27.0431 5.2544Z" fill="#305D8A"/>
<path d="M27.7094 4.582C27.7008 4.582 27.6921 4.58064 27.6834 4.57773C27.6405 4.56349 27.6172 4.51697 27.6316 4.47394L27.7137 4.22768C27.728 4.18471 27.7742 4.1613 27.8175 4.17581C27.8604 4.19008 27.8837 4.23658 27.8693 4.27962L27.7872 4.52589C27.7758 4.56027 27.7438 4.582 27.7094 4.582Z" fill="#305D8A"/>
<path d="M27.6971 5.1109C27.6741 5.1109 27.6513 5.10127 27.635 5.08253L27.5105 4.93845C27.4808 4.90416 27.4847 4.85229 27.5189 4.82263C27.5532 4.79307 27.6049 4.79674 27.6347 4.83105L27.7592 4.97511C27.7889 5.00941 27.7851 5.06127 27.7508 5.09093C27.7353 5.10434 27.7162 5.1109 27.6971 5.1109Z" fill="#305D8A"/>
<path d="M28.0087 5.33641C28.0053 5.33641 28.0019 5.33617 27.9983 5.33578C27.9534 5.33016 27.9216 5.28914 27.9272 5.24406L27.9806 4.81806C27.9862 4.77325 28.0263 4.74191 28.0723 4.74689C28.1173 4.75248 28.1491 4.79353 28.1435 4.83858L28.0901 5.26458C28.0849 5.30601 28.0495 5.33641 28.0087 5.33641V5.33641Z" fill="#305D8A"/>
<path d="M29.3104 5.49837C29.2801 5.49837 29.2511 5.48162 29.2368 5.45267C29.2167 5.41204 29.2333 5.36279 29.274 5.34268L29.6023 5.18042C29.6432 5.16031 29.6924 5.17698 29.7123 5.21761C29.7324 5.25824 29.7157 5.3075 29.6751 5.32762L29.3468 5.48986C29.335 5.49564 29.3226 5.49837 29.3104 5.49837Z" fill="#305D8A"/>
<path d="M29.7615 5.73206H29.5152C29.4698 5.73206 29.4331 5.69534 29.4331 5.64995C29.4331 5.60459 29.4698 5.56787 29.5152 5.56787H29.7615C29.8068 5.56787 29.8435 5.60459 29.8435 5.64995C29.8435 5.69534 29.8068 5.73206 29.7615 5.73206Z" fill="#305D8A"/>
<path d="M26.4384 6.36138C26.4206 6.36138 26.4027 6.35562 26.3875 6.34369L26.0591 6.0838C26.0236 6.05566 26.0176 6.00402 26.0458 5.96845C26.0738 5.93295 26.1253 5.92684 26.1611 5.95507L26.4895 6.21495C26.525 6.24308 26.531 6.29472 26.5029 6.3303C26.4867 6.35072 26.4626 6.36138 26.4384 6.36138Z" fill="#305D8A"/>
<path d="M26.3769 5.87553C26.372 5.87553 26.3671 5.8751 26.3621 5.87424L26.2452 5.85298C26.2006 5.84483 26.171 5.80211 26.179 5.75753C26.1871 5.71289 26.2297 5.68364 26.2745 5.6914L26.3915 5.71264C26.4361 5.7208 26.4657 5.76354 26.4576 5.8081C26.4504 5.8478 26.4158 5.87553 26.3769 5.87553V5.87553Z" fill="#305D8A"/>
<path d="M27.0759 5.85505C27.0582 5.85505 27.0404 5.84938 27.0253 5.83753L26.7156 5.59413C26.68 5.56617 26.6738 5.51453 26.7018 5.47886C26.7298 5.44328 26.7813 5.43686 26.8171 5.46509L27.1267 5.70846C27.1623 5.73642 27.1686 5.78806 27.1405 5.82373C27.1243 5.84433 27.1003 5.85505 27.0759 5.85505Z" fill="#305D8A"/>
<path d="M27.5085 5.88169C27.4809 5.88169 27.4541 5.86781 27.4385 5.84274L27.3117 5.63713C27.288 5.59849 27.2999 5.54789 27.3385 5.52409C27.3771 5.50029 27.4276 5.51239 27.4515 5.55086L27.5784 5.75648C27.6021 5.79512 27.5901 5.84571 27.5516 5.86951C27.5381 5.87775 27.5232 5.88169 27.5085 5.88169Z" fill="#305D8A"/>
<path d="M28.8758 6.88004C28.856 6.88004 28.8361 6.87291 28.8204 6.85847C28.7869 6.82776 28.7847 6.77592 28.8153 6.74249L29.0537 6.48251C29.0843 6.44907 29.1364 6.44684 29.1697 6.47747C29.2032 6.50815 29.2054 6.56002 29.1748 6.59345L28.9364 6.85343C28.9202 6.87108 28.898 6.88004 28.8758 6.88004Z" fill="#305D8A"/>
<path d="M29.3104 7.0133C29.2755 7.0133 29.2431 6.99083 29.2321 6.95565C29.2186 6.91244 29.2427 6.86634 29.286 6.85287L29.4502 6.80156C29.4933 6.78778 29.5394 6.81208 29.553 6.85543C29.5665 6.89862 29.5424 6.94473 29.4991 6.95819L29.3349 7.00951C29.3268 7.01209 29.3185 7.0133 29.3104 7.0133Z" fill="#305D8A"/>
<path d="M29.5462 6.48646C29.5056 6.48646 29.4705 6.45649 29.4649 6.41526C29.4589 6.37031 29.4905 6.32902 29.5354 6.32301L30.0157 6.25878C30.0611 6.25325 30.1019 6.28443 30.1079 6.32927C30.114 6.37424 30.0824 6.41551 30.0375 6.42154L29.5572 6.48574C29.5535 6.48623 29.5498 6.48646 29.5462 6.48646V6.48646Z" fill="#305D8A"/>
<path d="M29.8557 6.88004C29.824 6.88004 29.7938 6.86153 29.7804 6.83052C29.7624 6.7889 29.7816 6.74056 29.8232 6.72261L29.9342 6.67466C29.976 6.65672 30.0243 6.67595 30.0421 6.71748C30.0601 6.75905 30.0409 6.80741 29.9993 6.82537L29.8883 6.87332C29.8777 6.87791 29.8667 6.88004 29.8557 6.88004Z" fill="#305D8A"/>
<path d="M26.2334 7.78411C26.2096 7.78411 26.186 7.77386 26.1698 7.75398C26.1411 7.71886 26.1463 7.6671 26.1814 7.63846L26.4998 7.37847C26.5351 7.34977 26.5867 7.35498 26.6153 7.3901C26.644 7.42519 26.6388 7.47698 26.6037 7.5056L26.2853 7.76558C26.27 7.77803 26.2516 7.78411 26.2334 7.78411Z" fill="#305D8A"/>
<path d="M27.0432 7.18141C27.0386 7.18141 27.0338 7.181 27.0292 7.18022L26.7108 7.12552C26.6661 7.11791 26.6361 7.07544 26.6437 7.03078C26.6514 6.98611 26.6938 6.95622 26.7385 6.96374L27.0569 7.01842C27.1017 7.02605 27.1317 7.06853 27.1239 7.11318C27.1172 7.1532 27.0824 7.18141 27.0432 7.18141Z" fill="#305D8A"/>
<path d="M26.9202 7.72875C26.8935 7.72875 26.8674 7.71583 26.8516 7.69193C26.8266 7.65411 26.8369 7.60321 26.8748 7.57818L27.1851 7.37295C27.2228 7.34785 27.2737 7.35821 27.2988 7.39613C27.3238 7.43398 27.3135 7.48486 27.2756 7.50989L26.9654 7.71512C26.9514 7.72432 26.9357 7.72875 26.9202 7.72875Z" fill="#305D8A"/>
<path d="M27.6971 7.65288C27.687 7.65288 27.6768 7.65104 27.6669 7.64712C27.6247 7.63046 27.6041 7.58273 27.6208 7.54059L27.7508 7.21225C27.7675 7.17006 27.8154 7.14954 27.8573 7.16617C27.8994 7.18283 27.9201 7.23054 27.9034 7.27268L27.7734 7.60104C27.7607 7.63326 27.7297 7.65288 27.6971 7.65288Z" fill="#305D8A"/>
<path d="M28.2055 7.78411C28.1744 7.78411 28.1446 7.76642 28.1308 7.73626L28.0586 7.57888C28.0397 7.5377 28.0578 7.48895 28.099 7.47003C28.1409 7.45125 28.1891 7.46931 28.2079 7.51043L28.2801 7.66779C28.299 7.70902 28.2809 7.75775 28.2397 7.77667C28.2285 7.78173 28.2169 7.78411 28.2055 7.78411Z" fill="#305D8A"/>
<path d="M27.3404 6.55C27.3325 6.55 27.3244 6.54887 27.3163 6.54639L26.8966 6.41794C26.8533 6.40472 26.8288 6.35878 26.8422 6.31542C26.8554 6.27207 26.9011 6.24747 26.9447 6.261L27.3645 6.38942C27.4077 6.40267 27.4322 6.44859 27.4189 6.49196C27.4081 6.5273 27.3756 6.55 27.3404 6.55Z" fill="#305D8A"/>
<path d="M28.3675 6.98869C28.3565 6.98869 28.3453 6.98645 28.3345 6.9818C28.293 6.96351 28.2742 6.91509 28.2923 6.87358L28.3607 6.71789C28.379 6.6764 28.4272 6.6577 28.4689 6.67572C28.5104 6.69401 28.5293 6.74243 28.5111 6.78394L28.4427 6.93963C28.4292 6.9704 28.399 6.98869 28.3675 6.98869Z" fill="#305D8A"/>
<path d="M29.1321 7.54424C29.1265 7.54424 29.1208 7.5437 29.1151 7.54249L28.8551 7.48774C28.8108 7.47835 28.7823 7.43483 28.7917 7.39049C28.8011 7.34617 28.845 7.31763 28.889 7.3271L29.149 7.38184C29.1933 7.39123 29.2218 7.43475 29.2124 7.47907C29.2042 7.51771 29.1701 7.54424 29.1321 7.54424Z" fill="#305D8A"/>
<path d="M30.5015 9.0961H25.6584C25.613 9.0961 25.5763 9.05938 25.5763 9.014C25.5763 8.96863 25.613 8.93192 25.6584 8.93192H30.5015C30.5468 8.93192 30.5836 8.96863 30.5836 9.014C30.5836 9.05938 30.5468 9.0961 30.5015 9.0961Z" fill="#305D8A"/>
<path d="M7.29735 12.0522H5.43724C5.13534 12.0522 4.88972 11.8066 4.88972 11.5047V8.98775C4.88972 8.68585 5.13536 8.44032 5.43724 8.44032H7.29735C7.59925 8.44032 7.84486 8.68587 7.84486 8.98775V9.05958C8.47054 9.10559 8.96677 9.63098 8.96677 10.267C8.96677 10.903 8.47054 11.4284 7.84486 11.4744V11.5047C7.84486 11.8066 7.59925 12.0522 7.29735 12.0522V12.0522ZM5.43724 8.60451C5.22584 8.60451 5.05389 8.77648 5.05389 8.98777V11.5048C5.05389 11.7161 5.22584 11.888 5.43724 11.888H7.29735C7.50877 11.888 7.6807 11.7161 7.6807 11.5048V11.3956C7.6807 11.3505 7.71717 11.3138 7.76229 11.3135C8.33586 11.31 8.80258 10.8405 8.80258 10.267C8.80258 9.69355 8.33586 9.2241 7.76229 9.22057C7.71715 9.22026 7.6807 9.18361 7.6807 9.13849V8.98777C7.6807 8.77646 7.50874 8.60451 7.29735 8.60451H5.43724ZM7.76276 10.9852C7.74111 10.9852 7.72045 10.9767 7.70505 10.9615C7.68943 10.9461 7.6807 10.9251 7.6807 10.9031V9.63104C7.6807 9.60909 7.68943 9.58808 7.70505 9.57268C7.72069 9.5572 7.74273 9.54744 7.76364 9.54896C8.15548 9.55321 8.47421 9.87532 8.47421 10.2671C8.47421 10.6588 8.15548 10.9809 7.76364 10.9852C7.76333 10.9852 7.76309 10.9852 7.76276 10.9852V10.9852ZM7.84484 9.72028V10.8139C8.10786 10.7709 8.31003 10.5411 8.31003 10.2671C8.31003 9.99307 8.10786 9.76325 7.84484 9.72028Z" fill="#305D8A"/>
<path d="M7.27029 8.9321H5.46436C5.41899 8.9321 5.38228 8.89538 5.38228 8.84999C5.38228 8.80463 5.41899 8.76791 5.46436 8.76791H7.27029C7.31565 8.76791 7.35239 8.80463 7.35239 8.84999C7.35239 8.89538 7.31565 8.9321 7.27029 8.9321Z" fill="#305D8A"/>
</svg>
